# xmcd
#
# Track frame offsets:
#       150
#       4125
#       79633
#       127647
#       131588
#       155001
#       159348
#       163119
#       166848
#       174013
#       176874
#
# Disc length: 2800 seconds
#
# Revision: 0
# Processed by: cddbd v1.4PL0 Copyright (c) Steve Scherf et al.
# Submitted via: WhereIsIt 3.26
#
DISCID=760aee0b
DTITLE=Larry Schuba and Western Union - Country im Frack [CD 2)
DYEAR=1900
DGENRE=
TTITLE0=Ansage zu: Medley
TTITLE1=Medley
TTITLE2=International Country Medley
TTITLE3=Ansage zu: Down in the Valley
TTITLE4=Down in the Valley
TTITLE5=Ansage mit Backmusic 'Red River Valley' zu: Tumbling Tumbleweeds
TTITLE6=Tumbling Tumbleweeds
TTITLE7=Cool water
TTITLE8=Timber Trail
TTITLE9=Ansage zu: Back in the saddle again
TTITLE10=Back in the saddle again
EXTD=
EXTT0=
EXTT1=
EXTT2=
EXTT3=
EXTT4=
EXTT5=
EXTT6=
EXTT7=
EXTT8=
EXTT9=
EXTT10=
PLAYORDER=
